<svg width="232" height="47" viewBox="0 0 232 47" fill="none" xmlns="http://www.w3.org/2000/svg">
<path d="M51.7233 34.1704C51.5564 33.952 51.5071 33.7159 51.5779 33.4634C51.6487 33.2109 51.8509 33.0367 52.1847 32.9407C53.2616 32.6213 53.9948 32.3158 54.3854 32.0229C54.7747 31.73 55.0339 31.2427 55.1603 30.5596C55.2867 29.8779 55.3651 28.6419 55.3941 26.8542C55.4763 21.5276 55.4763 15.9688 55.3941 9.1664C55.379 8.19427 55.2955 7.47464 55.1438 7.00751C54.9922 6.54038 54.7039 6.16542 54.2805 5.88388C53.857 5.60234 53.1592 5.30565 52.1859 4.99381C51.8661 4.88271 51.6601 4.7009 51.5678 4.4484C51.4742 4.1959 51.5084 3.96612 51.6676 3.75907C51.8269 3.55202 52.081 3.45102 52.4311 3.45859C54.0719 3.50278 55.7253 3.52551 57.3888 3.52551C59.0524 3.52551 60.7045 3.50278 62.3465 3.45859C62.6878 3.45102 62.9381 3.55202 63.0987 3.75907C63.2579 3.96739 63.2921 4.19716 63.1985 4.4484C63.105 4.7009 62.8989 4.88271 62.5804 4.99381C61.607 5.30565 60.9131 5.59981 60.4972 5.87883C60.0813 6.15658 59.7994 6.53028 59.6503 6.99741C59.5011 7.46454 59.4202 8.18796 59.405 9.16766C59.3229 15.9701 59.3229 21.5289 59.405 26.8554C59.4417 28.6507 59.5239 29.888 59.6503 30.566C59.7767 31.2452 60.0333 31.73 60.4188 32.0229C60.8044 32.3158 61.5363 32.6226 62.6133 32.9407C62.947 33.0367 63.1492 33.2122 63.22 33.4634C63.2908 33.7159 63.244 33.9507 63.081 34.1704C62.9179 34.3888 62.6979 34.4911 62.4236 34.4759C61.2721 34.4469 60.1319 34.428 59.0031 34.4204C57.8742 34.4128 56.753 34.4128 55.6381 34.4204C54.2931 34.4355 53.2098 34.4532 52.3844 34.4759C52.1101 34.4911 51.8889 34.3888 51.722 34.1704H51.7233Z" fill="#232425"></path>
<path d="M92.5098 33.6744C90.8501 32.6947 89.5569 31.3173 88.6329 29.5409C87.7088 27.7646 87.2462 25.7117 87.2462 23.3824C87.2462 21.0531 87.7682 18.9321 88.8111 17.1065C89.854 15.2821 91.2432 13.8707 92.9775 12.872C94.7118 11.8746 96.5738 11.3759 98.5647 11.3759C100.243 11.3759 101.773 11.7395 103.155 12.4667C104.536 13.1939 105.618 14.2216 106.402 15.5485C107.186 16.8767 107.551 18.4081 107.499 20.1441C107.499 20.4256 107.455 20.6491 107.365 20.8119C107.275 20.9748 107.139 21.0922 106.953 21.1629C106.767 21.2336 106.53 21.269 106.24 21.269H92.9939C92.6375 21.269 92.3366 21.3472 92.0914 21.5025C91.8461 21.6578 91.6679 21.8889 91.5567 22.1919C91.4454 22.4961 91.405 22.8673 91.4341 23.3041C91.5895 25.3734 92.0446 27.1005 92.7993 28.4842C93.5527 29.8679 94.5184 30.8918 95.6965 31.5559C96.8734 32.22 98.1792 32.552 99.6126 32.552C100.377 32.552 101.137 32.4498 101.89 32.2465C102.644 32.042 103.381 31.7213 104.101 31.2845C104.822 30.8464 105.501 30.2909 106.14 29.6154C106.326 29.4298 106.523 29.3414 106.731 29.3478C106.938 29.3553 107.083 29.4462 107.165 29.6205C107.248 29.7947 107.225 30.0081 107.098 30.2606C106.437 31.47 105.614 32.4384 104.631 33.1643C103.646 33.8915 102.608 34.4029 101.518 34.6995C100.427 34.9962 99.3193 35.1452 98.1981 35.1452C96.0669 35.1452 94.1708 34.6554 92.511 33.6769L92.5098 33.6744ZM102.643 19.8499C102.88 19.6984 103.051 19.4787 103.155 19.1934C103.258 18.9081 103.296 18.5685 103.266 18.1758C103.17 16.9221 102.859 15.8806 102.335 15.0486C101.812 14.2178 101.166 13.6093 100.396 13.2242C99.6278 12.8392 98.8162 12.646 97.9617 12.646C97.1072 12.646 96.2123 12.8505 95.3653 13.2583C94.5184 13.6661 93.7739 14.2936 93.1317 15.1382C92.4896 15.9841 92.0307 17.037 91.7564 18.2983C91.6742 18.6619 91.6742 18.9788 91.7564 19.2502C91.8386 19.5216 91.989 19.7274 92.2077 19.8676C92.4264 20.009 92.6994 20.0784 93.0268 20.0784H101.75C102.107 20.0784 102.404 20.0027 102.641 19.8499H102.643Z" fill="#232425"></path>
<path d="M114.108 33.625C112.355 32.6125 110.988 31.2073 110.009 29.4083C109.028 27.6092 108.538 25.5715 108.538 23.2939C108.538 21.0163 109.042 18.9698 110.048 17.1518C111.054 15.3351 112.448 13.9135 114.231 12.8896C116.013 11.8657 118.008 11.3544 120.213 11.3544C122.419 11.3544 124.408 11.8644 126.157 12.8845C127.907 13.9046 129.269 15.3174 130.246 17.124C131.223 18.9307 131.711 20.9722 131.711 23.2497C131.711 25.5273 131.212 27.5915 130.213 29.3969C129.215 31.2035 127.829 32.6125 126.058 33.625C124.287 34.6376 122.294 35.1438 120.082 35.1438C117.87 35.1438 115.864 34.6376 114.11 33.625H114.108ZM124.045 32.6617C125.091 31.8537 125.917 30.6531 126.519 29.0623C127.12 27.4716 127.377 25.5589 127.287 23.3267C127.197 21.0795 126.78 19.1466 126.033 17.5293C125.286 15.912 124.343 14.6899 123.203 13.863C122.063 13.036 120.869 12.6219 119.621 12.6219C118.372 12.6219 117.248 13.0221 116.2 13.8238C115.152 14.6255 114.328 15.8098 113.726 17.3791C113.124 18.9484 112.868 20.8345 112.958 23.0376C113.047 25.3152 113.465 27.2733 114.212 28.9133C114.959 30.5534 115.902 31.7893 117.042 32.6239C118.182 33.4584 119.375 33.8763 120.624 33.8763C121.873 33.8763 122.997 33.4723 124.045 32.663V32.6617Z" fill="#232425"></path>
<path d="M172.769 13.0448C172.468 11.9174 171.545 11.353 170 11.353C169.429 11.353 168.863 11.449 168.301 11.6421C167.74 11.8353 167.192 12.0891 166.653 12.4047C166.115 12.7203 165.5 13.1218 164.809 13.6117C164.356 13.9386 163.94 14.099 163.561 14.0952C163.182 14.0914 162.884 13.9487 162.665 13.6672C162.446 13.3857 162.336 13.0069 162.336 12.5322C162.336 12.1762 162.286 11.8984 162.186 11.6977C162.086 11.4969 161.924 11.3745 161.702 11.3303C161.479 11.2861 161.19 11.2886 160.833 11.4528C160.114 11.7936 159.396 12.137 158.678 12.483C158.671 12.4868 158.664 12.4893 158.657 12.4931C154.333 14.5042 152.375 15.2832 149.88 13.4109C149.876 13.4084 149.873 13.4046 149.867 13.4021C148.547 12.4198 147.054 11.8126 145.433 11.5361C144.514 11.3795 143.581 11.3126 142.651 11.3126C140.415 11.3126 138.639 11.6851 137.116 12.4299C135.592 13.1748 134.46 14.1848 133.719 15.4625C132.977 16.7402 132.607 18.1782 132.607 19.7803C132.607 21.4695 133.052 23.1891 134.025 24.5841C135.149 26.1938 136.49 26.5789 136.49 27.3048C136.49 27.8174 135.073 27.9815 134.222 29.2428C133.761 29.9271 133.526 30.7111 133.526 31.6012C133.526 32.894 134.108 34.0883 135.063 34.9721C135.347 35.2347 135.621 35.5654 135.601 35.9833C135.581 36.4 135.256 36.7408 134.906 36.9302C133.172 37.8683 131.842 39.3845 131.842 41.4361C131.842 44.1644 134.155 45.7981 136.571 46.4382C137.985 46.8132 139.544 47 141.244 47C143.843 47 146.194 46.572 148.296 45.7148C150.398 44.8575 152.043 43.7175 153.231 42.2934C154.419 40.8692 155.014 39.3366 155.014 37.6978C155.014 36.6664 154.78 35.7573 154.312 34.9721C153.059 32.8662 150.28 32.413 148.04 32.413H140.374C139.706 32.413 139.115 32.3019 138.603 32.0797C137.868 31.7602 137.357 31.2767 137.071 30.6278C136.807 30.0281 136.674 29.0913 137.233 28.6027C137.727 28.1709 138.558 28.1861 139.172 28.1835C139.886 28.1583 141.717 28.3729 142.102 28.4095C142.928 28.4865 143.77 28.4903 144.591 28.3792C146.41 28.1558 147.987 27.5321 149.316 26.512C151.384 24.9263 152.804 22.4366 152.795 19.7803C152.791 18.6983 152.44 17.4876 153.213 16.576C154.406 15.1709 156.771 15.8274 157.811 17.0608C158.496 17.8726 158.653 18.9394 158.688 19.9659C158.774 22.4076 158.746 24.8669 158.688 27.3099C158.652 28.9789 158.577 30.1379 158.466 30.7868C158.354 31.4358 158.118 31.9029 157.758 32.1882C157.398 32.4736 156.742 32.7349 155.791 32.9722C155.471 33.0543 155.271 33.2109 155.189 33.4457C155.107 33.6793 155.139 33.8964 155.284 34.0971C155.429 34.2979 155.635 34.3976 155.902 34.3976C157.372 34.3749 159.003 34.3648 160.793 34.3648C162.583 34.3648 164.447 34.3762 166.385 34.3976C166.69 34.3976 166.92 34.2916 167.075 34.0807C167.231 33.8699 167.265 33.649 167.175 33.4192C167.085 33.1894 166.882 33.0404 166.562 32.9735C165.113 32.6768 164.134 32.3953 163.621 32.1276C163.107 31.86 162.772 31.4118 162.612 30.7818C162.453 30.1518 162.358 28.9941 162.327 27.3099C162.283 25.0841 162.283 22.8671 162.327 20.6565C162.357 18.9798 162.664 17.6151 163.246 16.5621C163.829 15.5092 164.585 14.7479 165.514 14.5333C166.442 14.3187 167.408 14.6924 168.411 15.4057C169.763 16.3627 170.902 16.4902 171.826 15.7895C172.751 15.0888 173.062 14.1747 172.761 13.0461L172.769 13.0448ZM140.054 36.2409H145.625C147.382 36.2409 149.745 36.4 150.856 37.9882C151.808 39.3479 151.649 41.5068 150.627 42.7845C149.017 44.8007 145.74 44.9093 143.385 44.9093C140.482 44.9093 138.363 44.4851 137.03 43.6354C135.696 42.7857 135.03 41.5674 135.03 39.9804C135.03 38.6308 135.472 37.67 136.356 37.0981C137.239 36.5275 138.473 36.2409 140.054 36.2409ZM147.688 23.7168C147.264 24.8581 146.645 25.7671 145.833 26.4438C145.02 27.1205 144.059 27.4677 142.949 27.4829C141.807 27.4993 140.803 27.1735 139.937 26.5044C139.071 25.8365 138.405 24.9111 137.935 23.7281C137.466 22.5464 137.231 21.2132 137.231 19.7285C137.231 18.3751 137.437 17.1315 137.849 15.9991C138.261 14.8653 138.869 13.9588 139.673 13.2784C140.477 12.5979 141.45 12.2494 142.593 12.233C143.719 12.2166 144.718 12.5373 145.586 13.1925C146.456 13.849 147.13 14.7656 147.606 15.9448C148.084 17.1227 148.323 18.4534 148.323 19.9381C148.323 21.3155 148.11 22.5755 147.686 23.7168H147.688Z" fill="#232425"></path>
<path d="M231.947 33.441C231.858 33.2112 231.654 33.056 231.334 32.9739C230.361 32.7365 229.692 32.4727 229.329 32.1836C228.965 31.8944 228.735 31.4349 228.639 30.8036C228.543 30.1736 228.488 29.0083 228.472 27.3103C228.442 25.7372 228.428 24.1653 228.428 22.5923C228.428 21.0192 228.443 19.4133 228.472 17.7745C228.501 15.5563 227.848 13.8974 226.512 12.7952C225.174 11.6943 223.479 11.2486 221.426 11.4594C219.372 11.6703 217.359 12.4998 215.383 13.9466C214.67 14.4579 214.07 14.694 213.584 14.6536C213.097 14.6132 212.658 14.314 212.264 13.7585C211.5 12.7131 210.493 12.0137 209.246 11.6614C207.998 11.3092 206.637 11.3016 205.163 11.6387C203.689 11.9758 202.228 12.6159 200.779 13.5577C200.267 13.8986 199.812 14.0754 199.414 14.0867C199.017 14.0981 198.712 13.9643 198.5 13.6865C198.289 13.4088 198.183 13.025 198.183 12.5351C198.183 12.1791 198.132 11.895 198.032 11.6842C197.932 11.4733 197.768 11.3471 197.542 11.3054C197.315 11.265 197.027 11.3105 196.678 11.4443C196.129 11.7183 195.575 11.9935 195.019 12.2675C194.461 12.5414 193.901 12.8141 193.336 13.0856C192.771 13.357 192.207 13.6183 191.642 13.8696C191.412 13.9655 191.254 14.1019 191.168 14.2761C191.082 14.4503 191.082 14.6283 191.168 14.8102C191.253 14.992 191.422 15.1422 191.675 15.2609C192.522 15.6611 193.129 16.0121 193.497 16.3125C193.865 16.613 194.124 17.0284 194.277 17.5586C194.428 18.0889 194.512 18.8918 194.527 19.9675C194.579 22.4521 194.528 26.3823 194.484 28.7924C194.38 31.7556 193.286 32.4512 191.733 32.7555C188.251 33.4398 188.703 28.7356 188.697 27.9857C188.674 24.8484 188.682 21.6062 188.72 18.0081C188.735 16.5398 188.446 15.3063 187.851 14.3077C187.257 13.3103 186.462 12.5679 185.467 12.0819C184.473 11.5958 183.384 11.3534 182.204 11.3534C180.703 11.3534 179.162 11.7473 177.58 12.5326C175.997 13.3191 174.685 14.2875 173.641 15.4364C172.597 16.5865 172.076 17.6546 172.076 18.6406C172.076 19.5155 172.441 20.1001 173.173 20.393C173.905 20.6859 174.615 20.5798 175.307 20.0761C175.997 19.5711 176.317 18.7479 176.265 17.6053C176.25 17.4122 176.238 17.2342 176.232 17.0713C176.195 16.56 176.176 16.1737 176.176 15.9136C176.176 15.3051 176.355 14.8064 176.711 14.4175C177.068 14.0287 177.547 13.7408 178.148 13.5552C178.75 13.3696 179.433 13.2699 180.199 13.2547C181.395 13.2396 182.353 13.4403 183.073 13.8557C183.794 14.2711 184.308 14.8316 184.617 15.5361C184.915 16.2191 185.068 17.0158 185.077 17.9222C185.059 19.032 184.905 20.321 183.485 20.4144C181.167 20.5672 171.709 22.4685 171.709 30.3453C171.709 34.6341 175.887 35.1416 177.001 35.1416C180.599 35.1416 182.53 33.2125 183.229 32.6494C183.583 32.3628 184.034 32.1444 184.491 32.3174C184.94 32.4866 185.165 32.9486 185.421 33.3198C186.099 34.3071 187.149 35.2679 188.947 35.2679C190.486 35.2679 191.948 34.4599 193.465 34.2616C195.363 34.0142 197.221 34.374 199.116 34.374C200.083 34.374 200.88 34.4068 200.88 34.4068C201.185 34.4068 201.414 34.3033 201.565 34.095C201.717 33.8879 201.749 33.6683 201.66 33.4385C201.57 33.2087 201.367 33.0534 201.047 32.9714C200.096 32.7492 199.44 32.4954 199.08 32.2088C198.72 31.9235 198.49 31.4702 198.39 30.8516C198.29 30.2317 198.221 29.0992 198.184 27.4529C198.161 26.2813 198.151 25.1387 198.151 24.0252C198.151 22.9117 198.162 21.788 198.184 20.653C198.199 19.8665 198.276 19.1292 198.418 18.4386C198.559 17.7493 198.797 17.1029 199.131 16.5032C199.464 15.9022 199.918 15.3909 200.49 14.968C201.864 13.9516 203.262 13.4681 204.684 13.5161C206.106 13.5641 207.285 14.0728 208.221 15.0399C209.156 16.007 209.639 17.2556 209.669 18.7845C209.698 20.3122 209.714 21.7716 209.714 23.1629C209.714 24.5542 209.702 25.9354 209.681 27.3077C209.65 28.9844 209.582 30.1433 209.475 30.7847C209.367 31.426 209.137 31.8919 208.784 32.181C208.432 32.4701 207.783 32.7454 206.84 33.0042C206.52 33.1001 206.321 33.2605 206.239 33.4827C206.156 33.7049 206.187 33.9145 206.328 34.1114C206.47 34.3084 206.673 34.4068 206.941 34.4068C208.471 34.3841 209.987 34.374 211.487 34.374C212.987 34.374 214.499 34.3854 216.021 34.4068C216.326 34.4068 216.556 34.3033 216.711 34.095C216.867 33.8879 216.901 33.6683 216.811 33.4385C216.722 33.2087 216.518 33.0534 216.198 32.9714C215.24 32.7416 214.579 32.484 214.215 32.1974C213.851 31.9121 213.621 31.4664 213.525 30.8617C213.429 30.257 213.362 29.146 213.324 27.5287V27.3065C213.279 24.9405 213.279 22.7223 213.324 20.653C213.346 19.3552 213.537 18.2278 213.898 17.2708C214.258 16.3138 214.836 15.5462 215.629 14.968C217.048 13.9226 218.469 13.429 219.891 13.4883C221.313 13.5476 222.482 14.0766 223.4 15.074C224.317 16.0714 224.79 17.339 224.82 18.8742C224.843 20.2831 224.853 21.687 224.853 23.0859C224.853 24.4848 224.842 25.8912 224.82 27.309C224.79 28.9856 224.721 30.1459 224.609 30.7923C224.498 31.4374 224.268 31.9033 223.919 32.1886C223.57 32.4739 222.924 32.7466 221.98 33.0067C221.66 33.1027 221.461 33.263 221.378 33.4852C221.296 33.7074 221.327 33.917 221.468 34.1139C221.61 34.3109 221.813 34.4094 222.081 34.4094C223.938 34.4018 225.425 34.398 226.543 34.398C227.662 34.398 229.2 34.4018 231.161 34.4094C231.466 34.4094 231.696 34.3058 231.851 34.0975C232.007 33.8905 232.041 33.6708 231.951 33.441H231.947ZM185.073 25.746C185.073 29.4729 183.939 30.4981 182.021 31.9096C180.97 32.6835 176.926 34.1745 175.764 30.6723C175.285 29.228 175.351 27.5678 175.962 26.1715C177.124 23.5101 179.967 22.11 182.678 21.7072C185.592 21.2742 185.074 23.8863 185.074 25.746H185.073Z" fill="#232425"></path>
<path d="M67.5075 33.8193C66.0298 32.9368 64.8264 31.6352 63.8973 29.9131C62.9682 28.1923 62.5043 26.1369 62.5043 23.7483C62.5043 21.3596 62.9872 19.1515 63.9529 17.2779C64.9187 15.4044 66.2687 13.955 68.003 12.9273C69.7373 11.8996 71.7068 11.3858 73.9138 11.3858C74.8126 11.3858 75.6709 11.4653 76.4875 11.6244C77.3041 11.7835 78.1106 12.0233 78.9057 12.3415C79.3064 12.5119 79.6464 12.57 79.9245 12.5145C80.2026 12.4589 80.4112 12.3074 80.549 12.0587C80.6867 11.81 80.755 11.4817 80.755 11.0739V7.89494C80.755 7.16773 80.6754 6.60213 80.5161 6.19813C80.3568 5.79412 80.0838 5.45198 79.697 5.17423C79.3102 4.89648 78.7097 4.56444 77.8919 4.17811C77.6391 4.05186 77.4697 3.89783 77.385 3.71603C77.299 3.53423 77.3016 3.35495 77.39 3.17694C77.4785 2.99893 77.6353 2.8651 77.8577 2.77672C78.7565 2.4207 79.5921 2.05709 80.3644 1.68591C81.1367 1.31474 81.9609 0.884221 82.8382 0.395629C83.158 0.21004 83.4348 0.117877 83.6687 0.117877C83.9025 0.117877 84.0846 0.208778 84.2148 0.390579C84.345 0.572381 84.4094 0.845083 84.4094 1.20869C84.3652 10.704 84.3652 19.101 84.4094 28.7365C84.4094 29.374 84.2982 31.1378 85.6065 31.461C86.8175 31.7602 88.457 30.7678 88.457 31.942C88.457 32.6414 87.088 32.7626 82.3262 34.9972C81.9925 35.1008 81.7081 35.1361 81.4743 35.1033C81.2404 35.0705 81.0622 34.9568 80.9396 34.7637C80.8169 34.5705 80.7563 34.2852 80.7563 33.9064C80.7563 33.4317 80.645 33.0593 80.4226 32.7879C80.2001 32.5177 79.9081 32.3839 79.5478 32.3876C79.1875 32.3914 78.8222 32.5341 78.4506 32.8156C77.5443 33.5504 76.5899 34.1211 75.5875 34.5289C74.5851 34.9366 73.4335 35.1412 72.134 35.1412C70.5299 35.1412 68.989 34.6993 67.51 33.8168L67.5075 33.8193ZM77.5341 32.1616C78.5214 31.5986 79.3051 30.8234 79.8853 29.8361C80.4643 28.8501 80.7537 27.7479 80.7537 26.5309V18.7311C80.7537 17.8258 80.4681 16.903 79.8954 15.9599C79.3228 15.018 78.5062 14.2353 77.4444 13.6116C76.3826 12.9879 75.1564 12.6773 73.7685 12.6773C72.4829 12.6773 71.3124 12.9791 70.2531 13.5838C69.1951 14.1886 68.3367 15.1986 67.6794 16.6164C67.0221 18.0329 66.6935 19.8951 66.6935 22.2017C66.6935 24.5083 67.0171 26.3225 67.663 27.955C68.3089 29.5874 69.2102 30.8373 70.3643 31.7046C71.5197 32.5732 72.8394 33.0063 74.3247 33.0063C75.4762 33.0063 76.5456 32.7247 77.5329 32.1604L77.5341 32.1616Z" fill="#232425"></path>
<path d="M21.0935 10.1382C21.0935 7.4146 16.8926 5.94847 15.6985 5.36744C14.922 4.9903 13.8022 4.59784 13.4316 3.77874C13.1083 3.06335 13.6417 1.99911 14.4771 1.81172C16.882 1.2743 17.1322 5.62554 19.4132 5.37687C22.1473 5.07869 20.5967 1.62787 19.2999 0.627271C17.7482 -0.568967 15.2335 0.132276 13.8399 1.19534C12.372 2.31497 11.9696 4.19124 10.4792 5.26844C9.47386 5.99443 8.0543 6.22779 6.86484 6.6061C4.49891 7.35803 2.13887 8.66741 0.871528 10.7252C-0.647156 13.1895 -0.197568 16.7712 2.35009 18.5272C3.9443 19.6257 6.21819 19.7034 8.08498 19.2202C9.4184 18.8749 10.5854 18.0912 10.9253 16.7959C11.297 15.3828 9.96239 12.5366 4.84347 15.7741C1.3046 18.0122 0.770047 12.473 1.73648 11.3439C3.42391 9.37336 5.74737 14.0263 9.05142 12.4199C11.448 11.2543 5.60458 5.6774 13.8364 6.15C16.895 6.32561 14.9468 7.95791 14.5822 8.37512C13.5237 9.58668 12.6151 10.9656 12.1065 12.4565C11.8221 13.2885 11.4882 14.5425 12.1195 15.3192C13.5697 17.1024 17.1558 13.4488 17.7517 14.3681C18.1612 15.001 15.4743 16.9857 14.6317 17.5903C13.7963 18.1902 13.2181 19.4772 14.7615 19.9427C14.8772 19.978 14.8772 20.1301 14.7615 20.1654C13.2181 20.631 13.7963 21.9191 14.6317 22.5178C15.4743 23.1224 18.1612 25.1083 17.7517 25.74C17.157 26.6605 13.5697 23.0058 12.1195 24.7889C11.4882 25.5656 11.8221 26.8196 12.1065 27.6516C12.6151 29.1425 13.5237 30.5214 14.5822 31.733C14.9468 32.1502 16.895 33.7825 13.8364 33.9581C5.60458 34.4307 11.4492 28.8538 9.05142 27.6882C5.74737 26.0818 3.42391 30.7348 1.73648 28.7642C0.770047 27.6351 1.3046 22.0959 4.84347 24.334C9.96357 27.5703 11.297 24.7253 10.9253 23.3122C10.5854 22.0181 9.41722 21.2344 8.08498 20.8879C6.21937 20.4035 3.9443 20.4813 2.35009 21.5809C-0.197568 23.3369 -0.647156 26.9186 0.871528 29.3829C2.13887 31.4395 4.49891 32.7501 6.86484 33.502C8.0543 33.8803 9.47386 34.1137 10.4792 34.8397C11.9708 35.9169 12.3732 37.7932 13.8399 38.9128C15.2324 39.9747 17.7482 40.6771 19.2999 39.4808C20.5967 38.4803 22.1473 35.0294 19.4132 34.7313C17.131 34.4826 16.882 38.8338 14.4771 38.2964C13.6417 38.1102 13.1083 37.0448 13.4316 36.3294C13.8022 35.5091 14.9232 35.1178 15.6985 34.7407C16.8926 34.1596 21.0947 32.6947 21.0935 29.9699C21.0935 26.4719 13.7031 32.4189 13.7031 28.3352C13.7031 22.3352 20.2522 31.2062 20.2522 23.1613C20.2522 21.7141 19.8521 20.6805 17.9405 20.1678C17.8166 20.1348 17.8166 19.9745 17.9405 19.9415C19.8521 19.4288 20.2522 18.3952 20.2522 16.948C20.2522 8.90312 13.7031 17.7741 13.7031 11.7741C13.7031 7.6892 21.0935 13.6374 21.0935 10.1394V10.1382Z" fill="#232425"></path>
<path d="M41.1159 21.5796C39.5217 20.4812 37.2478 20.4034 35.381 20.8866C34.0476 21.2319 32.8806 22.0157 32.5407 23.3109C32.169 24.724 33.5036 27.5702 38.6226 24.3327C42.1614 22.0947 42.696 27.6339 41.7295 28.7629C40.0421 30.7335 37.7187 26.0805 34.4146 27.6869C32.018 28.8525 37.8614 34.4295 29.6296 33.9569C26.571 33.7812 28.5192 32.1489 28.8839 31.7317C29.9423 30.5202 30.8509 29.1413 31.3595 27.6504C31.6439 26.8183 31.9779 25.5643 31.3466 24.7877C29.8963 23.0045 26.3102 26.658 25.7143 25.7388C25.3049 25.1059 27.9918 23.1212 28.8343 22.5166C29.6697 21.9167 30.248 20.6297 28.7045 20.1642C28.5889 20.1288 28.5889 19.9768 28.7045 19.9414C30.248 19.4759 29.6697 18.1877 28.8343 17.589C27.9918 16.9844 25.3049 14.9985 25.7143 14.3668C26.3091 13.4464 29.8963 17.1011 31.3466 15.3179C31.9779 14.5413 31.6439 13.2873 31.3595 12.4552C30.8509 10.9643 29.9423 9.58542 28.8839 8.37386C28.5192 7.95665 26.571 6.32435 29.6296 6.14874C37.8614 5.67614 32.0168 11.2531 34.4146 12.4187C37.7187 14.0251 40.0421 9.3721 41.7295 11.3427C42.696 12.4717 42.1614 18.0109 38.6226 15.7729C33.5025 12.5365 32.169 15.3816 32.5407 16.7947C32.8806 18.0887 34.0488 18.8725 35.381 19.219C37.2467 19.7034 39.5217 19.6256 41.1159 18.526C43.6636 16.7699 44.1132 13.1883 42.5945 10.7239C41.3272 8.66732 38.9671 7.35677 36.6012 6.60484C35.4117 6.22653 33.9922 5.99317 32.9868 5.26718C31.4952 4.18998 31.0929 2.31371 29.6261 1.19408C28.2337 0.132195 25.7179 -0.570226 24.1661 0.626012C22.8693 1.62661 21.3188 5.07743 24.0529 5.37561C26.335 5.62428 26.584 1.27304 28.9889 1.81046C29.8243 1.99668 30.3577 3.06209 30.0344 3.77748C29.6638 4.59776 28.5428 4.98904 27.7676 5.36618C26.5734 5.94721 22.3713 7.41216 22.3725 10.137C22.3725 13.635 29.763 7.68794 29.763 11.7716C29.763 17.7717 23.2139 8.90068 23.2139 16.9455C23.2139 18.3928 23.6139 19.4264 25.5255 19.9391C25.6494 19.9721 25.6494 20.1324 25.5255 20.1653C23.6139 20.678 23.2139 21.7116 23.2139 23.1589C23.2139 31.2037 29.763 22.3327 29.763 28.3328C29.763 32.4177 22.3725 26.4695 22.3725 29.9674C22.3725 32.6911 26.5734 34.1572 27.7676 34.7382C28.544 35.1154 29.6638 35.5078 30.0344 36.3269C30.3577 37.0423 29.8243 38.1066 28.9889 38.294C26.584 38.8314 26.3338 34.4801 24.0529 34.7288C21.3188 35.027 22.8693 38.4778 24.1661 39.4784C25.7179 40.6746 28.2337 39.9734 29.6261 38.9103C31.094 37.7907 31.4964 35.9144 32.9868 34.8372C33.9922 34.1112 35.4117 33.8779 36.6012 33.4996C38.9671 32.7477 41.3272 31.4383 42.5945 29.3805C44.1132 26.9161 43.6636 23.3345 41.1159 21.5784V21.5796Z" fill="#232425"></path>
</svg>